<svg xmlns="http://www.w3.org/2000/svg" viewBox="0 0 400 400" width="400" height="400" preserveAspectRatio="xMidYMid meet" style="width: 100%; height: 100%; transform: translate3d(0px, 0px, 0px); content-visibility: visible;"><defs><clipPath id="__lottie_element_1006"><rect width="400" height="400" x="0" y="0"/></clipPath></defs><g clip-path="url(#__lottie_element_1006)"><g transform="matrix(1,0,0,1,33,275)" opacity="1" style="display: block;"><g opacity="1" transform="matrix(1,0,0,1,141.91700744628906,21.08300018310547)"><path fill="rgb(42,45,50)" fill-opacity="1" d=" M-120.83300018310547,-20.83300018310547 C-132.33900451660156,-20.83300018310547 -141.66700744628906,-11.506999969482422 -141.66700744628906,-0.0010000000474974513 C-141.66700744628906,11.505000114440918 -132.33900451660156,20.83300018310547 -120.83300018310547,20.83300018310547 C-120.83300018310547,20.83300018310547 120.83300018310547,20.83300018310547 120.83300018310547,20.83300018310547 C132.33900451660156,20.83300018310547 141.66700744628906,11.505000114440918 141.66700744628906,-0.0010000000474974513 C141.66700744628906,-11.506999969482422 132.33900451660156,-20.83300018310547 120.83300018310547,-20.83300018310547 C120.83300018310547,-20.83300018310547 -120.83300018310547,-20.83300018310547 -120.83300018310547,-20.83300018310547z"/></g></g><g transform="matrix(1,0,0,1,33,175.04200744628906)" opacity="1" style="display: block;"><g opacity="1" transform="matrix(1,0,0,1,166.91600036621094,21.08300018310547)"><path fill="rgb(42,45,50)" fill-opacity="1" d=" M-166.66600036621094,0 C-166.66600036621094,-11.505999565124512 -157.33900451660156,-20.83300018310547 -145.83299255371094,-20.83300018310547 C-145.83299255371094,-20.83300018310547 145.83299255371094,-20.83300018310547 145.83299255371094,-20.83300018310547 C157.33900451660156,-20.83300018310547 166.66600036621094,-11.505999565124512 166.66600036621094,0 C166.66600036621094,11.505999565124512 157.33900451660156,20.83300018310547 145.83299255371094,20.83300018310547 C145.83299255371094,20.83300018310547 -145.83299255371094,20.83300018310547 -145.83299255371094,20.83300018310547 C-157.33900451660156,20.83300018310547 -166.66600036621094,11.505999565124512 -166.66600036621094,0z"/></g></g><g transform="matrix(1,0,0,1,32.75,75)" opacity="1" style="display: block;"><g opacity="1" transform="matrix(1,0,0,1,166.91600036621094,21.08300018310547)"><path fill="rgb(42,45,50)" fill-opacity="1" d=" M-166.66600036621094,0 C-166.66600036621094,-11.505999565124512 -157.33900451660156,-20.83300018310547 -145.83299255371094,-20.83300018310547 C-145.83299255371094,-20.83300018310547 145.83299255371094,-20.83300018310547 145.83299255371094,-20.83300018310547 C157.33900451660156,-20.83300018310547 166.66600036621094,-11.505999565124512 166.66600036621094,0 C166.66600036621094,11.505999565124512 157.33900451660156,20.83300018310547 145.83299255371094,20.83300018310547 C145.83299255371094,20.83300018310547 -145.83299255371094,20.83300018310547 -145.83299255371094,20.83300018310547 C-157.33900451660156,20.83300018310547 -166.66600036621094,11.505999565124512 -166.66600036621094,0z"/></g></g></g></svg>